<?xml version="1.0" standalone="no"?><!DOCTYPE svg PUBLIC "-//W3C//DTD SVG 1.1//EN" "http://www.w3.org/Graphics/SVG/1.1/DTD/svg11.dtd"><svg t="1500909885500" class="icon" style="" viewBox="0 0 1024 1024" version="1.1" xmlns="http://www.w3.org/2000/svg" p-id="2371" xmlns:xlink="http://www.w3.org/1999/xlink" width="200" height="200"><defs><style type="text/css"></style></defs><path d="M513.115915 1021.953388c281.009092 0 508.816494-227.805356 508.816494-508.814448 0-112.02133-36.636409-215.227899-97.947799-299.29455l-38.242999 39.800471c51.358715 73.606415 81.659835 162.92979 81.658811 259.493056 0 250.9024-203.379037 454.283484-454.284507 454.283484-250.868631 0-454.284507-203.38006-454.284507-454.283484S262.246261 58.854433 513.115915 58.854433c95.632057 0 184.27391 29.707602 257.46077 80.19446l34.229592-42.399669C722.186581 38.640042 621.720426 4.324492 513.115915 4.324492 232.112963 4.324492 4.302491 232.134964 4.302491 513.13894 4.303514 794.150078 232.113987 1021.953388 513.115915 1021.953388L513.115915 1021.953388 513.115915 1021.953388zM531.29188 767.547187 531.29188 531.311835l236.234329 0 0-54.496172L531.29188 476.815663 531.29188 240.58338l-54.497195 0 0 236.232283L240.562403 476.815663l0 54.496172 236.233306 0 0 236.235352L531.29188 767.547187 531.29188 767.547187z" p-id="2372"></path></svg>